HIERARCHY
ROOT root
{
	OFFSET 0.00 0.00 0.00
	CHANNELS 6 Xposition Yposition Zposition Xrotation Yrotation Zrotation
	JOINT back1
	{
		OFFSET 4.33070 0.00000 0.00000
		CHANNELS 3 Xrotation Yrotation Zrotation
		JOINT back2
		{
			OFFSET 4.72440 0.00000 0.00000
			CHANNELS 3 Xrotation Yrotation Zrotation
			JOINT back3
			{
				OFFSET 4.72440 0.00000 0.00000
				CHANNELS 3 Xrotation Yrotation Zrotation
				JOINT back4
				{
					OFFSET 4.72440 0.00000 0.00000
					CHANNELS 3 Xrotation Yrotation Zrotation
					JOINT neck1
					{
						OFFSET 0.00000 0.00000 0.00000
						CHANNELS 3 Xrotation Yrotation Zrotation
						JOINT neck2
						{
							OFFSET 3.48947 0.00000 0.61529
							CHANNELS 3 Xrotation Yrotation Zrotation
							JOINT neck3
							{
								OFFSET 3.32961 0.00000 1.21188
								CHANNELS 3 Xrotation Yrotation Zrotation
								JOINT head
								{
									OFFSET 3.06859 0.00000 1.77165
									CHANNELS 3 Xrotation Yrotation Zrotation
									JOINT Mouth1
									{
										OFFSET 3.87719 0.00000 0.68365
										CHANNELS 3 Xrotation Yrotation Zrotation
										End Site
										{
											OFFSET 3.87719 0.00000 0.68365
										}
									}
									JOINT Mouth2
									{
										OFFSET 3.87719 0.00000 0.68365
										CHANNELS 3 Xrotation Yrotation Zrotation
										End Site
										{
											OFFSET 3.87719 0.00000 0.68365
										}
									}
								}
							}
						}
					}
					JOINT L_shoulde
					{
						OFFSET 0.00000 3.14960 0.00000
						CHANNELS 3 Xrotation Yrotation Zrotation
						JOINT L_arm
						{
							OFFSET 1.96850 0.00000 -3.40954
							CHANNELS 3 Xrotation Yrotation Zrotation
							JOINT L_forearm
							{
								OFFSET -2.01980 0.00000 -5.54935
								CHANNELS 3 Xrotation Yrotation Zrotation
								JOINT L_hand
								{
									OFFSET -0.00001 0.00000 -7.87400
									CHANNELS 3 Xrotation Yrotation Zrotation
									JOINT L_finger
									{
										OFFSET 0.76422 0.00000 -2.85214
										CHANNELS 3 Xrotation Yrotation Zrotation
										End Site
										{
											OFFSET 1.67033 0.00000 -1.67033
										}
									}
								}
							}
						}
					}
					JOINT R_shoulde
					{
						OFFSET 0.00000 -3.14960 0.00000
						CHANNELS 3 Xrotation Yrotation Zrotation
						JOINT R_arm
						{
							OFFSET 1.96850 0.00000 -3.40954
							CHANNELS 3 Xrotation Yrotation Zrotation
							JOINT R_forearm
							{
								OFFSET -2.01980 0.00000 -5.54935
								CHANNELS 3 Xrotation Yrotation Zrotation
								JOINT r_hand
								{
									OFFSET -0.00001 0.00000 -7.87400
									CHANNELS 3 Xrotation Yrotation Zrotation
									JOINT r_finger
									{
										OFFSET 0.76422 0.00000 -2.85214
										CHANNELS 3 Xrotation Yrotation Zrotation
										End Site
										{
											OFFSET 1.67033 0.00000 -1.67033
										}
									}
								}
							}
						}
					}
				}
			}
		}
	}
	JOINT L_hip
	{
		OFFSET -1.96850 2.95275 -2.36220
		CHANNELS 3 Xrotation Yrotation Zrotation
		JOINT L_leg
		{
			OFFSET 1.02548 0.00000 -5.81578
			CHANNELS 3 Xrotation Yrotation Zrotation
			JOINT L_foot
			{
				OFFSET -5.06131 0.00000 -6.03183
				CHANNELS 3 Xrotation Yrotation Zrotation
				JOINT L_toe
				{
					OFFSET 0.00000 0.00000 -4.72440
					CHANNELS 3 Xrotation Yrotation Zrotation
					End Site
					{
						OFFSET 1.50796 0.00000 -1.26533
					}
				}
			}
		}
	}
	JOINT R_hip
	{
		OFFSET -1.96850 -2.95275 -2.36220
		CHANNELS 3 Xrotation Yrotation Zrotation
		JOINT R_leg
		{
			OFFSET 1.02548 0.00000 -5.81578
			CHANNELS 3 Xrotation Yrotation Zrotation
			JOINT R_foot
			{
				OFFSET -5.06131 0.00000 -6.03183
				CHANNELS 3 Xrotation Yrotation Zrotation
				JOINT R_toe
				{
					OFFSET 0.00000 0.00000 -4.72440
					CHANNELS 3 Xrotation Yrotation Zrotation
					End Site
					{
						OFFSET 1.50796 0.00000 -1.26533
					}
				}
			}
		}
	}
	JOINT W1
	{
		OFFSET -3.54330 0.00000 0.00000
		CHANNELS 3 Xrotation Yrotation Zrotation
		JOINT W2
		{
			OFFSET -3.03679 0.00000 -3.61910
			CHANNELS 3 Xrotation Yrotation Zrotation
			JOINT W3
			{
				OFFSET -2.27759 0.00000 -2.71433
				CHANNELS 3 Xrotation Yrotation Zrotation
				JOINT W4
				{
					OFFSET -2.27759 0.00000 -2.71433
					CHANNELS 3 Xrotation Yrotation Zrotation
					End Site
					{
						OFFSET -2.53065 0.00000 -3.01592
					}
				}
			}
		}
	}
}
MOTION
Frames: 13
Frame Time: 0.008333
 4.7902 20.1574 23.4914 -100.3597 -8.0821 -116.1309 3.2334 4.5976 -0.7931 0.8072 8.7160 -1.5842 -0.3662 -2.0164 5.0536 -3.8590 0.5341 0.1985 -3.9459 -18.4470 -4.6246 -4.7380 1.0049 4.7993 7.4733 4.9668 -3.4872 8.5443 3.4774 4.9824 -0.0000 0.0000 -0.0000 -0.0000 0.0000 -0.0000 14.5488 6.0030 -29.9472 -15.1983 -4.0319 24.1638 -0.0000 -1.9287 0.0000 -0.0000 18.6345 -0.0000 0.0000 -39.8462 0.0000 -10.8568 -11.0504 -8.0624 -11.7073 -5.6812 -0.0416 0.0000 -13.4097 0.0000 -0.0000 10.3858 0.0000 -0.0000 -20.4004 -0.0000 -2.1492 -7.9331 11.5001 0.0000 24.8673 -0.0000 -0.0000 -1.4692 -0.0000 0.0000 24.2763 0.0000 -12.1674 -14.2013 -16.1704 -0.0000 -1.0651 -0.0000 -0.0000 -5.5556 -0.0000 0.0000 -4.8292 0.0000 1.6666 -9.2723 -0.2120 -4.2272 -17.8815 18.4897 -1.9257 28.3630 -10.7340 24.0300 2.8001 -9.2344
 4.6284 20.1976 23.7108 -100.5010 -7.9152 -117.4320 3.6744 4.9397 -0.2065 0.7106 8.8214 -1.4631 -0.7283 -2.1802 5.1113 -4.0198 0.4186 -0.2356 -3.6297 -18.1651 -3.3723 -4.3199 0.6099 4.2852 7.3208 4.8317 -3.1490 8.7740 3.6403 4.6696 -0.0000 0.0000 -0.0000 -0.0000 0.0000 -0.0000 15.1519 6.8605 -29.0074 -14.8992 -4.4206 23.9306 -0.0000 -0.9521 0.0000 0.0000 19.1804 -0.0000 0.0000 -39.2887 0.0000 -9.6586 -10.4857 -7.1867 -11.6699 -5.0400 -0.2396 -0.0000 -14.3890 -0.0000 0.0000 9.3170 0.0000 0.0000 -21.2874 0.0000 -2.9083 -9.5974 12.9565 0.0000 25.9580 -0.0000 -0.0000 -3.2080 -0.0000 -0.0000 23.6172 0.0000 -11.9309 -13.5988 -15.5520 0.0000 -1.0492 0.0000 0.0000 -5.2259 -0.0000 0.0000 -5.9370 0.0000 2.3515 -8.6140 1.1017 -5.8413 -17.9849 16.8663 -1.6200 28.9375 -10.2062 23.4366 2.6330 -9.9904
 4.4693 20.2329 23.9315 -100.6475 -7.6925 -118.7804 4.0517 5.2738 0.4456 0.7519 8.9932 -1.3565 -1.0547 -2.3762 5.1779 -4.1584 0.3377 -0.7066 -3.3786 -17.8979 -2.1907 -3.9588 0.2545 3.7322 7.0675 4.7617 -2.5910 8.9763 3.7846 4.3931 -0.0000 0.0000 -0.0000 -0.0000 0.0000 -0.0000 15.7249 7.6444 -28.2213 -14.7007 -4.8708 23.8228 -0.0000 -0.0621 -0.0000 -0.0000 20.0035 -0.0000 -0.0000 -38.6605 -0.0000 -8.3972 -10.1991 -6.5124 -11.8610 -4.4374 -0.4589 0.0000 -15.1303 -0.0000 -0.0000 8.6049 0.0000 -0.0000 -21.9011 -0.0000 -3.7050 -11.1590 14.2378 0.0000 26.7436 0.0000 -0.0000 -5.0000 0.0000 -0.0000 23.7029 -0.0000 -11.6796 -13.0027 -14.7909 -0.0000 -0.9697 0.0000 -0.0000 -4.9994 -0.0000 -0.0000 -6.7881 -0.0000 3.0678 -7.8362 2.4703 -7.1737 -17.9478 15.5931 -0.9416 29.4818 -9.9713 23.0832 2.5093 -10.1177
 4.3110 20.2622 24.1500 -100.7804 -7.3930 -120.1071 4.4678 5.6495 1.0470 0.7994 9.0976 -1.1813 -1.3035 -2.4919 5.3136 -4.2297 0.2347 -1.2607 -3.2229 -17.7455 -1.2031 -3.7296 0.1993 3.3724 6.8487 4.6849 -2.1877 9.0490 3.9338 4.3027 -0.0000 0.0000 -0.0000 -0.0000 0.0000 -0.0000 16.0825 8.3168 -27.5264 -14.5150 -5.2002 23.7508 -0.0000 0.7662 -0.0000 0.0000 20.7884 -0.0000 0.0000 -37.5364 0.0000 -7.1488 -10.2284 -6.2494 -12.2363 -3.6159 -0.3787 0.0000 -15.7333 0.0000 0.0000 7.7341 -0.0000 0.0000 -22.2770 0.0000 -4.3566 -12.7138 15.4903 0.0000 27.1934 -0.0000 -0.0000 -6.5466 -0.0000 -0.0000 23.6782 -0.0000 -11.3941 -12.4132 -14.0861 -0.0000 -0.8385 0.0000 0.0000 -4.7270 -0.0000 -0.0000 -7.6976 0.0000 3.5851 -6.9959 3.4467 -8.4955 -17.9027 14.2633 -0.5577 29.8580 -9.6905 22.7565 2.8050 -10.4653
 4.1548 20.2856 24.3671 -100.8782 -7.0332 -121.4447 4.8953 5.9739 1.6518 0.9077 9.2476 -0.9308 -1.4667 -2.5899 5.4292 -4.3609 0.1257 -1.7389 -3.1388 -17.5795 -0.4203 -3.5931 0.1405 3.1350 6.7222 4.7468 -1.8140 9.1685 4.0640 4.2147 -0.0000 0.0000 -0.0000 -0.0000 0.0000 -0.0000 16.3725 8.7772 -26.9554 -14.4258 -5.3137 23.7565 -0.0000 1.3889 -0.0000 0.0000 21.8369 0.0000 0.0000 -36.0531 0.0000 -5.9137 -10.3780 -6.4036 -12.6571 -2.6879 0.0535 0.0000 -16.2514 0.0000 0.0000 6.9368 -0.0000 -0.0000 -22.8375 -0.0000 -4.9323 -14.2500 16.6321 -0.0000 27.3214 -0.0000 -0.0000 -7.9172 -0.0000 0.0000 23.6705 0.0000 -11.0905 -11.8441 -13.4063 0.0000 -0.7035 0.0000 -0.0000 -4.3987 -0.0000 0.0000 -8.7032 0.0000 3.8403 -6.2382 4.0877 -9.2965 -17.7462 13.1101 -0.6425 30.6344 -9.0671 25.3329 2.3662 -8.2747
 3.9984 20.3057 24.5837 -100.9833 -6.6474 -122.7743 5.3180 6.3326 2.2620 1.0495 9.3717 -0.6555 -1.5872 -2.6632 5.5308 -4.4634 0.0269 -2.2468 -3.0906 -17.4687 0.3688 -3.4922 0.2163 2.9055 6.5964 4.8542 -1.5549 9.1955 4.1386 4.3207 -0.0000 0.0000 -0.0000 -0.0000 0.0000 -0.0000 16.4453 9.1382 -26.2768 -14.3393 -5.1954 23.7249 0.0000 1.6827 0.0000 -0.0000 23.1873 0.0000 0.0000 -34.1272 0.0000 -4.8315 -10.6014 -6.5702 -13.0594 -1.6574 0.5805 -0.0000 -16.7426 0.0000 0.0000 6.2164 -0.0000 0.0000 -23.3410 0.0000 -5.3967 -15.6943 17.8309 0.0000 27.0206 -0.0000 0.0000 -8.9656 -0.0000 -0.0000 23.7147 0.0000 -10.8176 -11.2459 -12.7492 0.0000 -0.5674 0.0000 0.0000 -4.0438 0.0000 0.0000 -9.7731 -0.0000 4.1065 -5.4312 4.6883 -9.7683 -17.2815 12.5358 -0.4211 30.8564 -9.1274 24.3968 3.0134 -8.9970
 3.8423 20.3194 24.7968 -101.0438 -6.2117 -124.0551 5.7640 6.6573 2.8571 1.2022 9.4841 -0.3701 -1.6768 -2.6950 5.6405 -4.5027 -0.0002 -2.7266 -3.0766 -17.3883 1.0252 -3.4270 0.3349 2.6864 6.4710 5.0490 -1.4870 8.9224 4.0772 4.7969 -0.0000 0.0000 -0.0000 -0.0000 0.0000 -0.0000 16.3960 9.2245 -25.6926 -14.3561 -4.7430 23.7822 0.0000 1.5333 -0.0000 0.0000 24.6523 0.0000 0.0000 -31.4773 -0.0000 -4.0024 -10.8750 -6.7898 -13.3410 -0.6320 1.1455 -0.0000 -17.1291 -0.0000 0.0000 5.4182 -0.0000 -0.0000 -23.7436 -0.0000 -5.7683 -17.0868 18.8885 0.0000 26.3894 -0.0000 0.0000 -9.9571 0.0000 -0.0000 24.0834 -0.0000 -10.5075 -10.6447 -12.1150 -0.0000 -0.3880 -0.0000 -0.0000 -3.7374 -0.0000 -0.0000 -10.6537 -0.0000 4.1877 -4.6078 4.9707 -10.2269 -17.0184 11.7121 -0.1846 31.3377 -8.6205 24.3503 3.0056 -9.1013
 3.6882 20.3288 25.0082 -101.0606 -5.7953 -125.2753 6.2021 6.8990 3.3831 1.3544 9.5622 -0.0388 -1.7741 -2.6682 5.7689 -4.5403 -0.0132 -3.1524 -3.0754 -17.2330 1.6754 -3.3402 0.4265 2.2934 6.2084 5.2242 -1.2428 8.9468 4.0884 4.9719 -0.0000 0.0000 -0.0000 -0.0000 0.0000 -0.0000 16.1367 9.0904 -24.9715 -14.3550 -3.7736 23.8190 0.0000 0.7120 -0.0000 -0.0000 26.7001 0.0000 -0.0000 -28.1321 -0.0000 -3.4309 -11.0183 -7.0495 -13.3929 0.2929 1.6616 -0.0000 -17.3865 -0.0000 0.0000 4.6206 -0.0000 -0.0000 -24.1687 -0.0000 -6.0930 -18.4345 19.8318 0.0000 25.3229 0.0000 -0.0000 -10.5391 -0.0000 0.0000 24.1830 -0.0000 -10.2483 -10.0837 -11.5167 0.0000 -0.2100 0.0000 -0.0000 -3.3986 -0.0000 -0.0000 -11.6561 -0.0000 4.3914 -3.8004 5.2637 -10.3142 -16.5247 11.6423 -0.4848 31.6301 -9.0376 25.1915 3.1026 -8.5837
 3.5350 20.3329 25.2177 -101.0515 -5.3676 -126.4842 6.6169 7.0979 3.9554 1.5026 9.6386 0.2949 -1.8396 -2.6400 5.8712 -4.5478 0.0367 -3.5806 -3.0870 -17.0415 2.3934 -3.2357 0.5180 1.7606 5.9695 5.3766 -1.0251 8.8398 4.0895 5.1992 -0.0000 0.0000 -0.0000 -0.0000 0.0000 -0.0000 15.6271 8.8644 -24.2110 -14.2473 -2.4712 23.7822 -0.0000 -0.9082 -0.0000 0.0000 29.6794 -0.0000 0.0000 -24.3114 0.0000 -3.1585 -11.0221 -7.0760 -13.1904 1.1171 1.9747 -0.0000 -17.5654 -0.0000 -0.0000 3.7987 -0.0000 -0.0000 -24.4550 -0.0000 -6.3596 -19.7009 20.7019 0.0000 23.8732 -0.0000 -0.0000 -10.8998 -0.0000 0.0000 24.2266 -0.0000 -10.0177 -9.6315 -11.0296 0.0000 0.0366 -0.0000 0.0000 -3.0474 0.0000 0.0000 -12.5203 0.0000 4.3216 -2.9728 5.2548 -10.3680 -16.3009 11.3212 -0.2240 31.9840 -8.9057 24.2332 3.1605 -9.4362
 3.3820 20.3338 25.4237 -100.9775 -4.8993 -127.6333 7.0622 7.2700 4.5062 1.6286 9.6630 0.6410 -1.8895 -2.6005 5.9281 -4.5646 0.1437 -3.9315 -3.1001 -16.7966 3.0699 -3.1213 0.6213 1.1829 5.8570 5.5186 -1.0274 8.4325 4.0315 5.7278 -0.0000 0.0000 -0.0000 -0.0000 0.0000 -0.0000 15.0972 8.4841 -23.3905 -14.2395 -0.8190 23.8423 -0.0000 -3.5970 0.0000 0.0000 34.2355 -0.0000 0.0000 -20.1053 0.0000 -2.8706 -10.8658 -7.0883 -12.9639 1.7599 2.1678 -0.0000 -17.7100 -0.0000 -0.0000 3.0124 0.0000 0.0000 -24.7061 0.0000 -6.5260 -20.8818 21.4272 0.0000 22.0321 -0.0000 0.0000 -10.7879 0.0000 -0.0000 24.1275 0.0000 -9.7118 -9.1242 -10.5020 -0.0000 0.2453 0.0000 -0.0000 -2.7134 -0.0000 0.0000 -13.6910 0.0000 4.3138 -2.1879 5.1287 -10.7294 -16.0327 10.6326 0.0804 32.2048 -8.4583 24.5405 3.1345 -9.1903
 3.2333 20.3291 25.6285 -100.8536 -4.3971 -128.7429 7.5363 7.4165 5.0682 1.7435 9.6650 0.9557 -1.9441 -2.5413 5.9666 -4.5707 0.2565 -4.2512 -3.1067 -16.5666 3.8331 -2.9745 0.8367 0.4990 5.7929 5.5347 -0.9804 8.0801 4.0165 6.1639 -0.0000 0.0000 -0.0000 -0.0000 0.0000 -0.0000 14.4127 8.1127 -22.2797 -14.1749 1.0613 23.9168 -0.0000 -7.3714 -0.0000 0.0000 40.3302 -0.0000 -0.0000 -15.2780 -0.0000 -2.5894 -10.5996 -6.9938 -12.7288 2.2855 2.2816 0.0000 -17.7888 0.0000 -0.0000 2.4243 0.0000 0.0000 -24.9658 -0.0000 -6.6577 -21.9554 21.9083 -0.0000 19.8850 0.0000 0.0000 -10.5419 -0.0000 -0.0000 24.1749 0.0000 -9.3757 -8.6487 -9.9546 0.0000 0.4864 0.0000 0.0000 -2.2864 -0.0000 -0.0000 -14.9068 0.0000 4.3756 -1.3216 5.0513 -10.6120 -15.8342 10.6567 0.3600 32.5046 -8.7677 24.3854 3.2953 -9.2323
 3.0848 20.3197 25.8311 -100.6887 -3.8644 -129.8015 8.0218 7.4997 5.6105 1.7702 9.7136 1.3193 -1.9400 -2.4521 5.9368 -4.6061 0.4083 -4.5573 -3.0744 -16.3644 4.6142 -2.7786 0.9991 -0.2208 5.8296 5.6237 -1.0206 7.5412 3.9661 6.5078 -0.0000 0.0000 -0.0000 -0.0000 0.0000 -0.0000 13.8008 7.7133 -20.9689 -14.1687 2.8158 24.0553 -0.0000 -11.7646 0.0000 -0.0000 47.5379 -0.0000 -0.0000 -9.6511 0.0000 -2.2971 -10.3364 -6.8951 -12.4140 2.7177 2.3830 -0.0000 -17.7943 0.0000 0.0000 1.8446 -0.0000 0.0000 -25.2624 0.0000 -6.7503 -22.9208 22.1307 0.0000 17.3622 -0.0000 -0.0000 -9.8226 -0.0000 0.0000 23.9036 -0.0000 -8.9970 -8.1579 -9.4529 -0.0000 0.7368 0.0000 -0.0000 -2.0359 -0.0000 0.0000 -15.4764 0.0000 4.4902 -0.5412 4.8629 -10.7610 -15.5938 10.5336 0.9780 32.7802 -9.0390 23.7059 3.2208 -9.6984
 2.9404 20.3061 26.0329 -100.5143 -3.2655 -130.8103 8.4946 7.6115 6.1253 1.8144 9.7777 1.6737 -1.9715 -2.3551 5.9029 -4.6272 0.5311 -4.8082 -3.0307 -16.1791 5.1748 -2.6057 1.2212 -0.7749 5.8028 5.6838 -1.0145 7.1841 3.7827 6.7465 -0.0000 0.0000 -0.0000 -0.0000 0.0000 -0.0000 13.3342 7.3629 -20.0528 -14.2073 3.9733 24.3908 -0.0000 -16.2663 -0.0000 -0.0000 55.7354 0.0000 0.0000 -3.8022 -0.0000 -2.1343 -10.0464 -6.8050 -11.9165 3.1402 2.3935 -0.0000 -17.7517 -0.0000 -0.0000 1.3425 0.0000 -0.0000 -25.5839 0.0000 -6.7677 -23.7140 22.1765 0.0000 14.5512 0.0000 -0.0000 -8.6638 -0.0000 0.0000 23.5614 -0.0000 -8.5709 -7.6160 -9.0751 0.0000 1.0102 -0.0000 -0.0000 -1.7327 -0.0000 -0.0000 -16.2643 0.0000 4.5919 0.3640 4.6352 -10.8704 -15.6239 10.3679 1.6635 33.2960 -9.3045 22.9125 3.1065 -10.2568
